<svg width="24" height="24" viewBox="0 0 24 24" fill="none" xmlns="http://www.w3.org/2000/svg">
<g clip-path="url(#clip0)">
<path d="M13.4068 12.0067L23.6947 1.71886C24.0917 1.33538 24.1027 0.702648 23.7193 0.305582C23.3358 -0.0914836 22.7031 -0.102494 22.306 0.280985C22.2977 0.289009 22.2895 0.297208 22.2814 0.305582L11.9935 10.5934L1.70569 0.305524C1.30862 -0.0779552 0.675896 -0.0669451 0.292416 0.330121C-0.0816925 0.717465 -0.0816925 1.33151 0.292416 1.71886L10.5802 12.0067L0.292416 22.2945C-0.0977977 22.6848 -0.0977977 23.3175 0.292416 23.7078C0.682689 24.0979 1.31542 24.0979 1.70569 23.7078L11.9935 13.4199L22.2813 23.7078C22.6784 24.0912 23.3111 24.0802 23.6946 23.6832C24.0687 23.2958 24.0687 22.6818 23.6946 22.2945L13.4068 12.0067Z" fill="white"/>
</g>
<defs>
<clipPath id="clip0">
<rect width="24" height="24" fill="white"/>
</clipPath>
</defs>
</svg>
