<svg width="33" height="32" viewBox="0 0 33 32" fill="none" xmlns="http://www.w3.org/2000/svg">
<path d="M31.9025 9.97173V6.70574L30.2695 6.42776C30.1361 5.91196 29.9498 5.41132 29.7136 4.93376L30.7212 3.54397L28.3933 1.2508L27.0036 2.22368C26.5406 1.98187 26.0508 1.79533 25.5443 1.66777L25.2663 0H22.0003L21.7223 1.66777C21.2114 1.79785 20.7206 1.99657 20.263 2.25846L18.8733 1.2508L16.5454 3.50919L17.3098 4.51678H2.61275C2.23056 4.51678 2.02207 4.96847 2.02207 5.35067V8.61665C2.01449 8.78956 2.0633 8.96028 2.16106 9.10306L11.4031 18.5189V31.3049C11.3996 31.5423 11.5175 31.765 11.7158 31.8956C11.8304 31.9667 11.9632 32.0029 12.098 31.9998L12.376 31.9303L17.6572 29.2897C17.8796 29.1614 18.0132 28.921 18.0046 28.6643V18.5189L21.5138 15.0097H21.6875L22.0002 16.6775H25.2662L25.5442 15.0097C26.0571 14.8859 26.5488 14.6868 27.0035 14.419L28.3933 15.4266L30.7212 13.0987L29.7136 11.7089C29.9496 11.2433 30.1359 10.7543 30.2695 10.2496L31.9025 9.97173ZM3.41192 5.90657H17.0665C17.0354 6.06139 16.9889 6.21269 16.9276 6.35826L15.2251 6.70568V7.64378H3.41192V5.90657ZM16.8581 17.7545C16.7174 17.8793 16.6303 18.0535 16.6149 18.2409V28.2126L12.793 30.1931V18.241C12.799 18.056 12.7226 17.8779 12.5845 17.7546L4.03732 9.03363H15.2251V9.97173L16.9276 10.2497C17.0668 10.7575 17.2651 11.2473 17.5183 11.709L16.5454 13.1335L18.8733 15.4267L19.8809 14.6971L16.8581 17.7545ZM29.123 9.03363L29.0535 9.48532C28.9238 10.1547 28.6642 10.7922 28.2891 11.3615L28.0459 11.7437L28.9145 12.9598L28.2543 13.62L27.073 12.7861L26.6908 13.0293C26.1031 13.3933 25.4564 13.652 24.7798 13.7937L24.3281 13.8632L24.0849 15.2877H23.1815L22.9383 13.8632L22.4866 13.7937C21.8154 13.6705 21.1767 13.4102 20.6104 13.0293L20.1935 12.7861L19.0122 13.6199L18.3521 12.9597L19.1859 11.7784L18.9427 11.3962C18.5854 10.8177 18.3271 10.1836 18.1784 9.52004L18.0741 9.03363L16.6149 8.79043V7.88705L18.0741 7.64384L18.1784 7.19215C18.308 6.52279 18.5677 5.88529 18.9427 5.31595L19.1859 4.93376L18.3521 3.71768L19.0122 3.0575L20.1935 3.89138L20.5757 3.64818C21.1634 3.28414 21.8101 3.02551 22.4867 2.88379L22.9384 2.81429L23.1816 1.38979H24.085L24.3282 2.81429L24.7799 2.88379C25.4464 3.02298 26.0821 3.28201 26.6561 3.64818L27.073 3.92616L28.2543 3.05756L28.9145 3.71774L28.0806 4.89904L28.3238 5.28124C28.6873 5.85663 28.9461 6.49187 29.0882 7.15744V7.64384L30.478 7.85233V8.79043L29.123 9.03363Z" fill="#1D2C4D"/>
<path d="M23.6332 4.93378C21.7527 4.93378 20.2282 6.45824 20.2282 8.33875C20.2282 10.2193 21.7527 11.7437 23.6332 11.7437C25.5137 11.7437 27.0382 10.2193 27.0382 8.33875C27.0382 6.45824 25.5137 4.93378 23.6332 4.93378ZM23.6332 10.3539C22.5203 10.3539 21.618 9.45169 21.618 8.33875C21.618 7.22582 22.5203 6.32357 23.6332 6.32357C24.7462 6.32357 25.6484 7.22582 25.6484 8.33875C25.6484 9.45169 24.7462 10.3539 23.6332 10.3539Z" fill="#1D2C4D"/>
</svg>
