<svg width="24" height="24" viewBox="0 0 24 24" fill="none" xmlns="http://www.w3.org/2000/svg">
<g clip-path="url(#clip0)">
<path d="M10.1539 0H0.92308C0.413262 0 0 0.413262 0 0.92308V10.1539C0 10.6637 0.413262 11.077 0.92308 11.077H10.1539C10.6637 11.077 11.077 10.6637 11.077 10.1539V0.92308C11.077 0.413262 10.6637 0 10.1539 0Z" fill="#D3D3D3"/>
<path d="M23.077 0H13.8462C13.3364 0 12.9231 0.413262 12.9231 0.92308V10.1539C12.9231 10.6637 13.3364 11.077 13.8462 11.077H23.077C23.5868 11.077 24.0001 10.6637 24.0001 10.1539V0.92308C24.0001 0.413262 23.5868 0 23.077 0Z" fill="#D3D3D3"/>
<path d="M10.1539 12.9231H0.92308C0.413262 12.9231 0 13.3364 0 13.8462V23.077C0 23.5868 0.413262 24.0001 0.92308 24.0001H10.1539C10.6637 24.0001 11.077 23.5868 11.077 23.077V13.8462C11.077 13.3364 10.6637 12.9231 10.1539 12.9231Z" fill="#D3D3D3"/>
<path d="M23.077 12.9231H13.8462C13.3364 12.9231 12.9231 13.3364 12.9231 13.8462V23.077C12.9231 23.5868 13.3364 24.0001 13.8462 24.0001H23.077C23.5868 24.0001 24.0001 23.5868 24.0001 23.077V13.8462C24.0001 13.3364 23.5868 12.9231 23.077 12.9231Z" fill="#D3D3D3"/>
</g>
<defs>
<clipPath id="clip0">
<rect width="24" height="24" fill="white"/>
</clipPath>
</defs>
</svg>
