<svg width="14" height="14" viewBox="0 0 14 14" fill="none" xmlns="http://www.w3.org/2000/svg">
<g clip-path="url(#clip0)">
<path d="M13.3 6.2486H7.70004V0.830045C7.70004 0.456248 7.3864 0.152771 6.99996 0.152771C6.61364 0.152771 6.3 0.456248 6.3 0.830045V6.2486H0.699957C0.313641 6.2486 0 6.55208 0 6.92588C0 7.2998 0.313641 7.60328 0.699957 7.60328H6.3V13.0217C6.3 13.3956 6.61364 13.6991 6.99996 13.6991C7.3864 13.6991 7.70004 13.3956 7.70004 13.0217V7.60328H13.3C13.6864 7.60328 14 7.2998 14 6.92588C14 6.55208 13.6864 6.2486 13.3 6.2486Z" fill="black"/>
</g>
<defs>
<clipPath id="clip0">
<rect width="14" height="13.5463" fill="white" transform="translate(0 0.152771)"/>
</clipPath>
</defs>
</svg>
