<svg width="16" height="16" viewBox="0 0 16 16" fill="none" xmlns="http://www.w3.org/2000/svg">
<path d="M12.2173 2.69388C12.064 2.66988 11.9077 2.71628 11.7896 2.81816C11.669 2.92188 11.6 3.07256 11.6 3.2315C11.6 3.47578 11.7637 3.68591 12.0069 3.75469C12.7522 3.96509 13.7333 5.43175 13.7333 6.13334V12.4739C13.7333 13.0499 13.312 13.5424 12.7741 13.5947C12.4688 13.624 12.1765 13.528 11.9509 13.3232C11.7277 13.1211 11.6 12.8331 11.6 12.5333V7.46666C11.6 6.08612 10.5456 4.94772 9.19999 4.81359V0.266656C9.19999 0.119469 9.08052 0 8.93333 0H0.933332C0.786145 0 0.666676 0.119469 0.666676 0.266656V14.4H0.399957C0.25277 14.4 0.133301 14.5195 0.133301 14.6667V15.7333C0.133301 15.8805 0.25277 16 0.399957 16H9.46661C9.6138 16 9.73327 15.8805 9.73327 15.7333V14.6667C9.73327 14.5195 9.6138 14.4 9.46661 14.4H9.19996V6.43787C9.65861 6.55706 9.99996 6.97122 9.99996 7.46669V12.4486C9.99996 13.8947 11.0911 15.1006 12.4842 15.1939C12.5461 15.1982 12.608 15.2 12.6691 15.2C13.3472 15.2 13.9869 14.9483 14.4869 14.4808C15.0248 13.9777 15.3333 13.2678 15.3333 12.5334V6.4H15.6C15.7472 6.4 15.8666 6.28053 15.8666 6.13334C15.8666 4.64319 13.8109 2.93253 12.2173 2.69388ZM1.99996 1.6C1.99996 1.45281 2.11943 1.33334 2.26661 1.33334H7.59996C7.74715 1.33334 7.86661 1.45281 7.86661 1.6V5.33334C7.86661 5.48053 7.74715 5.6 7.59996 5.6H2.26661C2.11943 5.6 1.99996 5.48053 1.99996 5.33334V1.6ZM1.99996 7.46666C1.99996 7.31947 2.11943 7.2 2.26661 7.2H7.59996C7.74715 7.2 7.86661 7.31947 7.86661 7.46666V12.8C7.86661 12.9472 7.74715 13.0667 7.59996 13.0667H2.26661C2.11943 13.0667 1.99996 12.9472 1.99996 12.8V7.46666ZM9.19996 15.4667H0.666613V14.9333H0.93327H8.93327H9.19993V15.4667H9.19996Z" fill="#566880"/>
<path d="M7.33333 7.73333H2.53333V12.5333H7.33333V7.73333ZM6.26664 11.7333H3.59998C3.45279 11.7333 3.33333 11.6139 3.33333 11.4667C3.33333 11.3195 3.45279 11.2 3.59998 11.2H6.26664C6.41383 11.2 6.53329 11.3195 6.53329 11.4667C6.53329 11.6139 6.41386 11.7333 6.26664 11.7333ZM6.26664 10.4H3.59998C3.45279 10.4 3.33333 10.2805 3.33333 10.1333C3.33333 9.98614 3.45279 9.86668 3.59998 9.86668H6.26664C6.41383 9.86668 6.53329 9.98614 6.53329 10.1333C6.53329 10.2805 6.41386 10.4 6.26664 10.4ZM6.26664 9.06664H3.59998C3.45279 9.06664 3.33333 8.94718 3.33333 8.79999C3.33333 8.6528 3.45279 8.53333 3.59998 8.53333H6.26664C6.41383 8.53333 6.53329 8.6528 6.53329 8.79999C6.53329 8.94718 6.41386 9.06664 6.26664 9.06664Z" fill="#566880"/>
<path d="M7.3332 1.86665H2.5332V5.06665H7.3332V1.86665Z" fill="#566880"/>
</svg>
