<svg width="16" height="16" viewBox="0 0 16 16" fill="none" xmlns="http://www.w3.org/2000/svg">
<path d="M11.2161 4.66479V3.44239H9.46567C9.31047 3.8968 8.95447 4.25359 8.50087 4.4096V12.7496H11.2161V11.3248C11.2161 10.652 11.7609 10.1064 12.4337 10.1048H13.4337C14.1065 10.1064 14.6513 10.652 14.6513 11.3248V14.78C14.6513 15.4512 14.1097 15.996 13.4385 16H12.4385C11.7657 15.9984 11.2209 15.4528 11.2209 14.78V13.7496H4.78567V14.7696C4.79127 15.4432 4.24967 15.9944 3.57607 15.9992C3.57367 15.9992 3.57127 15.9992 3.56887 15.9992H2.56887C1.89607 15.9976 1.35127 15.452 1.35127 14.7792V11.3344C1.35127 10.6616 1.89607 10.116 2.56887 10.1144H3.56887C4.24167 10.116 4.78647 10.6616 4.78647 11.3344V12.7496H7.50167V4.4096C7.04727 4.25359 6.68967 3.8968 6.53447 3.44239H4.78407V4.66479C4.78407 5.33759 4.23927 5.8832 3.56647 5.8848H2.56647C1.89367 5.8832 1.34888 5.33759 1.34888 4.66479V1.22C1.34888 0.547995 1.89207 0.0024 2.56407 0H3.56407C4.23687 0.0016 4.78168 0.547195 4.78168 1.22V2.44239H6.53207C6.80727 1.632 7.68807 1.1984 8.49847 1.4736C8.95447 1.6288 9.31207 1.9864 9.46727 2.44239H11.2177V1.22C11.2177 0.547195 11.7625 0.0016 12.4353 0H13.4353C14.1081 0.0016 14.6529 0.547195 14.6529 1.22V4.66479C14.6529 5.33759 14.1081 5.8832 13.4353 5.8848H12.4353C11.7609 5.884 11.2161 5.33759 11.2161 4.66479Z" fill="#566880"/>
</svg>
