<svg width="16" height="16" viewBox="0 0 16 16" fill="none" xmlns="http://www.w3.org/2000/svg">
<path d="M15.7402 5.86285H14.674C14.5583 5.86285 14.4582 5.93477 14.4207 6.04421L13.6797 8.26422H12.9543L12.232 7.06041C12.1851 6.97912 12.0975 6.93221 12.0037 6.93221H10.9375V6.13176C10.9375 5.9848 10.8187 5.86598 10.6717 5.86598H8.80502V4.79975H9.60548C9.75244 4.79975 9.87125 4.68093 9.87125 4.53397V2.92993C9.87125 2.78297 9.75244 2.66415 9.60548 2.66415H4.79961C4.65265 2.66415 4.53384 2.78297 4.53384 2.92993V4.53084C4.53384 4.6778 4.65265 4.79662 4.79961 4.79662H5.60007V5.86285H3.46448C3.39256 5.86285 3.3269 5.89099 3.27687 5.94102C3.22684 5.99105 3.1987 6.05984 3.1987 6.12863V6.92909H1.33201C1.18505 6.92909 1.06623 7.0479 1.06623 7.19486V8.79578H0.531553V7.99845C0.531553 7.85149 0.412735 7.73267 0.265777 7.73267C0.118818 7.73267 0 7.85149 0 7.99845V10.134C0 10.281 0.118818 10.3998 0.265777 10.3998C0.412735 10.3998 0.531553 10.281 0.531553 10.134V9.33358H1.06623V11.4692C1.06623 11.6161 1.18505 11.735 1.33201 11.735H3.32377L4.31183 13.217C4.36186 13.2921 4.44629 13.3359 4.53384 13.3359H12.0037C12.1038 13.3359 12.1976 13.2796 12.2414 13.1889L12.9668 11.735H13.7047L14.4301 13.1889C14.477 13.2796 14.5677 13.3359 14.6677 13.3359H15.734C15.8809 13.3359 15.9998 13.217 15.9998 13.0701V6.13176C16.006 5.98167 15.8872 5.86285 15.7402 5.86285ZM3.1987 11.2003H1.59779V7.46377H3.1987V11.2003ZM8.26721 5.86285H6.13162V4.79662H8.26721V5.86285ZM13.6046 11.2003H13.07V8.7989H13.6046V11.2003Z" fill="#566880"/>
</svg>
