<svg width="16" height="16" viewBox="0 0 16 16" fill="none" xmlns="http://www.w3.org/2000/svg">
<g clip-path="url(#clip0)">
<path d="M4.743 2.2069H3.89401C3.81586 2.2069 3.72298 2.29633 3.68681 2.40665L0.00771968 13.5937C-0.0285562 13.704 0.0664783 13.7933 0.220133 13.7931L1.88811 13.7912C2.02791 13.8003 2.15822 13.7201 2.21299 13.5911L4.83765 2.40662C4.86344 2.29633 4.82115 2.2069 4.743 2.2069V2.2069Z" fill="#566880"/>
<path d="M5.8731 2.2069C5.80413 2.2069 5.73517 2.29517 5.71586 2.40552L3.86482 13.589C3.84551 13.6993 3.9393 13.7903 4.07724 13.7903L6.95172 13.7848C6.9129 13.7169 6.89379 13.6395 6.89655 13.5614L6.93241 11.8014C6.94766 11.5198 7.18583 11.3025 7.46758 11.3131L7.99724 11.3103L8.53241 11.3131C8.81416 11.3025 9.05233 11.5198 9.06758 11.8014L9.10344 13.5614C9.10619 13.6395 9.08709 13.7169 9.04827 13.7848L11.9228 13.7903C12.0607 13.7903 12.1545 13.6993 12.1352 13.589L10.2841 2.40552C10.2648 2.29517 10.1959 2.2069 10.1269 2.2069H8.84413L8.88551 3.93655C8.8893 4.0654 8.84166 4.19047 8.7531 4.28414C8.67329 4.36611 8.56404 4.41278 8.44965 4.41379H7.55034C7.43594 4.41278 7.3267 4.36611 7.24689 4.28414C7.15833 4.19047 7.11069 4.0654 7.11448 3.93655L7.15586 2.2069L5.8731 2.2069ZM9.02896 10.0083C9.03175 10.1277 8.98596 10.2432 8.90206 10.3283C8.79937 10.4279 8.66172 10.4834 8.51861 10.4828H7.48137C7.33827 10.4834 7.20061 10.4279 7.09792 10.3283C7.01403 10.2432 6.96824 10.1277 6.97103 10.0083L7.00689 8.46345C7.02024 8.20029 7.23999 7.99519 7.50344 8H8.49655C8.76 7.99519 8.97974 8.20029 8.9931 8.46345L9.02896 10.0083ZM7.5393 4.96552H8.46068C8.70634 4.96093 8.9108 5.15315 8.92137 5.39862L8.95724 6.72276C8.96065 6.83718 8.91674 6.94796 8.83586 7.02896C8.74209 7.12211 8.61491 7.17378 8.48275 7.17241H7.51724C7.38508 7.17378 7.25789 7.12211 7.16413 7.02896C7.08325 6.94796 7.03934 6.83718 7.04275 6.72276L7.07861 5.39862C7.08919 5.15315 7.29365 4.96093 7.5393 4.96552Z" fill="#566880"/>
<path d="M14.1121 13.7912L15.78 13.7931C15.9336 13.7933 16.0286 13.704 15.9924 13.5937L12.3132 2.40665C12.2769 2.2963 12.1842 2.2069 12.106 2.2069H11.257C11.1789 2.2069 11.1365 2.29633 11.1624 2.40662L13.7872 13.5911C13.8419 13.7201 13.9723 13.8003 14.1121 13.7912Z" fill="#566880"/>
</g>
<defs>
<clipPath id="clip0">
<rect width="16" height="16" fill="white"/>
</clipPath>
</defs>
</svg>
