<svg width="16" height="16" viewBox="0 0 16 16" fill="none" xmlns="http://www.w3.org/2000/svg">
<path d="M14.6667 12.824V8V3.17572C15.4221 3.04828 16 2.39119 16 1.6C16 0.717594 15.2824 0 14.4 0C13.5176 0 12.8 0.717594 12.8 1.6C12.8 2.39119 13.3779 3.04828 14.1333 3.17572V7.73331H10.4V3.17572C11.1555 3.04825 11.7333 2.39119 11.7333 1.6C11.7333 0.717594 11.0157 0 10.1333 0C9.25094 0 8.53334 0.717594 8.53334 1.6C8.53334 2.39119 9.11122 3.04828 9.86669 3.17572V7.73331H6.13334L6.13363 3.17572C6.88909 3.04825 7.46669 2.39119 7.46669 1.6C7.46669 0.717594 6.74909 0 5.86669 0C4.98428 0 4.26669 0.717594 4.26669 1.6C4.26669 2.39119 4.84456 3.04853 5.60028 3.176L5.6 7.73334H1.86641L1.86669 3.17575C2.62213 3.04828 3.2 2.39119 3.2 1.6C3.2 0.717594 2.48241 0 1.6 0C0.717594 0 0 0.717594 0 1.6C0 2.39119 0.577875 3.04828 1.33334 3.17572L1.33306 8C1.33306 8.14719 1.45253 8.26666 1.59972 8.26666H5.6V12.824C4.84453 12.9515 4.26666 13.6085 4.26666 14.4C4.26666 15.2821 4.98425 16 5.86666 16C6.74906 16 7.46666 15.2821 7.46666 14.4C7.46666 13.6085 6.88878 12.9515 6.13331 12.824V8.26666H9.86666V12.824C9.11119 12.9515 8.53331 13.6085 8.53331 14.4C8.53331 15.2821 9.25091 16 10.1333 16C11.0157 16 11.7333 15.2821 11.7333 14.4C11.7333 13.6085 11.1554 12.9515 10.4 12.824V8.26666H14.1333V12.824C13.3778 12.9515 12.8 13.6085 12.8 14.4C12.8 15.2821 13.5176 16 14.4 16C15.2824 16 16 15.2821 16 14.4C16 13.6085 15.4221 12.9515 14.6667 12.824Z" fill="#566880"/>
</svg>
