<svg width="16" height="16" viewBox="0 0 16 16" fill="none" xmlns="http://www.w3.org/2000/svg">
<path d="M13.5 2.75C13.5 2.19771 13.0523 1.75 12.5 1.75H12.25V2.5C12.25 2.77614 12.0261 3 11.75 3H11.25C11.5261 3 11.75 2.77614 11.75 2.5V1C11.75 0.723848 11.5261 0.5 11.25 0.5C10.9739 0.5 10.75 0.723848 10.75 1V1.75H9.5V2.5C9.5 2.77614 9.27614 3 9 3H8.5C8.77614 3 9 2.77614 9 2.5V1C9 0.723848 8.77614 0.5 8.5 0.5C8.22386 0.5 8 0.723848 8 1V1.75H6.5V2.5C6.5 2.77614 6.27614 3 6 3H5.5C5.77614 3 6 2.77614 6 2.5V1C6 0.723848 5.77614 0.5 5.5 0.5C5.22386 0.5 5 0.723848 5 1V1.75H3.75V2.5C3.75 2.77614 3.52614 3 3.25 3H2.75C3.02614 3 3.25 2.77614 3.25 2.5V1C3.25 0.723848 3.02614 0.5 2.75 0.5C2.47386 0.5 2.25 0.723848 2.25 1V1.75H1.5C0.947707 1.75 0.5 2.19771 0.5 2.75V4.25H13.5V2.75Z" fill="#566880"/>
<path d="M12.75 10C11.2312 10 10 11.2312 10 12.75C10 14.2688 11.2312 15.5 12.75 15.5C14.2688 15.5 15.5 14.2688 15.5 12.75C15.5 11.2312 14.2688 10 12.75 10ZM12.75 13.25C12.686 13.25 12.6253 13.2369 12.569 13.2149L11.6562 13.9453L11.3438 13.5547L12.2574 12.8239C12.2538 12.7996 12.25 12.7753 12.25 12.75C12.25 12.5654 12.3512 12.406 12.5 12.3194V10.75H13V12.3194C13.1488 12.406 13.25 12.5654 13.25 12.75C13.25 13.0261 13.0261 13.25 12.75 13.25Z" fill="#566880"/>
<path d="M1.5 14H9.74989C9.58934 13.6151 9.5 13.1931 9.5 12.75C9.5 11.3983 10.3256 10.2399 11.4997 9.75H10.25V8.25H11.75V9.6584C12.0652 9.55649 12.4008 9.5 12.75 9.5C13.0086 9.5 13.2589 9.53339 13.5 9.59046V4.75H0.5V13C0.5 13.5525 0.947495 14 1.5 14ZM10.25 5.5H11.75V7H10.25V5.5ZM7.5 5.5H9V7H7.5V5.5ZM7.5 8.25H9V9.75H7.5V8.25ZM7.5 11H9V12.5H7.5V11ZM4.75 5.5H6.25V7H4.75V5.5ZM4.75 8.25H6.25V9.75H4.75V8.25ZM4.75 11H6.25V12.5H4.75V11ZM2 5.5H3.5V7H2V5.5ZM2 8.25H3.5V9.75H2V8.25ZM2 11H3.5V12.5H2V11Z" fill="#566880"/>
</svg>
