<svg width="33" height="32" viewBox="0 0 33 32" fill="none" xmlns="http://www.w3.org/2000/svg">
<path d="M8.25681 26.1473C7.55389 26.1473 6.85097 26.1473 6.14459 26.1473C5.02961 26.1473 3.91464 26.1473 2.7962 26.1473C2.5365 26.1473 2.28027 26.1473 2.02057 26.1473C1.47693 26.1473 0.957535 26.6252 0.981773 27.1861C1.00601 27.7505 1.43884 28.2249 2.02057 28.2249C2.72349 28.2249 3.42641 28.2249 4.13279 28.2249C5.24776 28.2249 6.36274 28.2249 7.48117 28.2249C7.74087 28.2249 7.99711 28.2249 8.25681 28.2249C8.80044 28.2249 9.31984 27.7471 9.2956 27.1861C9.27136 26.6217 8.83853 26.1473 8.25681 26.1473Z" fill="#566880"/>
<path d="M31.9414 26.1473C31.2869 26.1473 30.6359 26.1473 29.9815 26.1473C28.4129 26.1473 26.8443 26.1473 25.2758 26.1473C23.3851 26.1473 21.4945 26.1473 19.6039 26.1473C17.9696 26.1473 16.3352 26.1473 14.7008 26.1473C13.9044 26.1473 13.1045 26.1335 12.3081 26.1473C12.2977 26.1473 12.2873 26.1473 12.2735 26.1473C11.7299 26.1473 11.2105 26.6252 11.2347 27.1861C11.2589 27.7505 11.6918 28.2249 12.2735 28.2249C12.9279 28.2249 13.5789 28.2249 14.2334 28.2249C15.8019 28.2249 17.3705 28.2249 18.9391 28.2249C20.8297 28.2249 22.7203 28.2249 24.6109 28.2249C26.2453 28.2249 27.8797 28.2249 29.514 28.2249C30.3105 28.2249 31.1103 28.2388 31.9067 28.2249C31.9171 28.2249 31.9275 28.2249 31.9414 28.2249C32.485 28.2249 33.0044 27.7471 32.9802 27.1861C32.9559 26.6217 32.5231 26.1473 31.9414 26.1473Z" fill="#566880"/>
<path d="M9.29561 30.9604C9.29561 30.1051 9.29561 29.2498 9.29561 28.3946C9.29561 27.0372 9.29561 25.6798 9.29561 24.319C9.29561 24.0039 9.29561 23.6923 9.29561 23.3772C9.29561 22.8335 8.81776 22.3141 8.25681 22.3384C7.6924 22.3626 7.21802 22.7955 7.21802 23.3772C7.21802 24.2325 7.21802 25.0877 7.21802 25.943C7.21802 27.3004 7.21802 28.6577 7.21802 30.0185C7.21802 30.3336 7.21802 30.6453 7.21802 30.9604C7.21802 31.504 7.69586 32.0234 8.25681 31.9992C8.82123 31.9749 9.29561 31.5421 9.29561 30.9604Z" fill="#566880"/>
<path d="M22.7307 19.8453C22.7307 18.99 22.7307 18.1347 22.7307 17.2795C22.7307 15.9221 22.7307 14.5647 22.7307 13.2039C22.7307 12.8888 22.7307 12.5772 22.7307 12.2621C22.7307 11.7184 22.2528 11.199 21.6919 11.2233C21.1275 11.2475 20.6531 11.6803 20.6531 12.2621C20.6531 13.1173 20.6531 13.9726 20.6531 14.8279C20.6531 16.1853 20.6531 17.5426 20.6531 18.9034C20.6531 19.2185 20.6531 19.5302 20.6531 19.8453C20.6531 20.3889 21.1309 20.9083 21.6919 20.8841C22.2563 20.8598 22.7307 20.427 22.7307 19.8453Z" fill="#566880"/>
<path d="M21.6919 14.9976C21.0375 14.9976 20.3865 14.9976 19.7321 14.9976C18.1635 14.9976 16.5949 14.9976 15.0263 14.9976C13.1357 14.9976 11.2451 14.9976 9.3545 14.9976C7.72013 14.9976 6.08575 14.9976 4.45138 14.9976C3.65497 14.9976 2.8551 14.9837 2.05869 14.9976C2.0483 14.9976 2.03791 14.9976 2.02406 14.9976C1.48043 14.9976 0.961029 15.4754 0.985268 16.0363C1.00951 16.6008 1.44234 17.0751 2.02406 17.0751C2.6785 17.0751 3.32948 17.0751 3.98392 17.0751C5.55251 17.0751 7.12109 17.0751 8.68967 17.0751C10.5803 17.0751 12.4709 17.0751 14.3615 17.0751C15.9959 17.0751 17.6302 17.0751 19.2646 17.0751C20.061 17.0751 20.8609 17.089 21.6573 17.0751C21.6677 17.0751 21.6781 17.0751 21.6919 17.0751C22.2356 17.0751 22.755 16.5973 22.7307 16.0363C22.7065 15.4719 22.2736 14.9976 21.6919 14.9976Z" fill="#566880"/>
<path d="M31.9414 14.9975C31.2385 14.9975 30.5355 14.9975 29.8292 14.9975C28.7142 14.9975 27.5992 14.9975 26.4808 14.9975C26.2211 14.9975 25.9648 14.9975 25.7051 14.9975C25.1615 14.9975 24.6421 15.4754 24.6663 16.0363C24.6906 16.6008 25.1234 17.0751 25.7051 17.0751C26.4081 17.0751 27.111 17.0751 27.8174 17.0751C28.9323 17.0751 30.0473 17.0751 31.1657 17.0751C31.4254 17.0751 31.6817 17.0751 31.9414 17.0751C32.485 17.0751 33.0044 16.5973 32.9802 16.0363C32.9559 15.4719 32.5231 14.9975 31.9414 14.9975Z" fill="#566880"/>
<path d="M14.455 3.84785C14.0429 3.84785 13.6343 3.84785 13.2223 3.84785C12.232 3.84785 11.2382 3.84785 10.2479 3.84785C9.05325 3.84785 7.85863 3.84785 6.66402 3.84785C5.62868 3.84785 4.59681 3.84785 3.56148 3.84785C3.05593 3.84785 2.55039 3.83746 2.04484 3.84785C2.03791 3.84785 2.03099 3.84785 2.02406 3.84785C1.48043 3.84785 0.961029 4.32569 0.985268 4.88664C1.00951 5.45105 1.44234 5.92544 2.02406 5.92544C2.43612 5.92544 2.84471 5.92544 3.25677 5.92544C4.24709 5.92544 5.24087 5.92544 6.23119 5.92544C7.4258 5.92544 8.62042 5.92544 9.81503 5.92544C10.8504 5.92544 11.8822 5.92544 12.9176 5.92544C13.4231 5.92544 13.9287 5.93582 14.4342 5.92544C14.4411 5.92544 14.4481 5.92544 14.455 5.92544C14.9986 5.92544 15.518 5.44759 15.4938 4.88664C15.4695 4.32223 15.0367 3.84785 14.455 3.84785Z" fill="#566880"/>
<path d="M31.9413 3.84785C31.4947 3.84785 31.048 3.84785 30.6013 3.84785C29.5279 3.84785 28.4579 3.84785 27.3845 3.84785C26.086 3.84785 24.791 3.84785 23.4925 3.84785C22.3706 3.84785 21.2487 3.84785 20.1268 3.84785C19.5831 3.84785 19.036 3.83746 18.4924 3.84785C18.4855 3.84785 18.4785 3.84785 18.4682 3.84785C17.9245 3.84785 17.4051 4.32569 17.4294 4.88664C17.4536 5.45105 17.8864 5.92544 18.4682 5.92544C18.9148 5.92544 19.3615 5.92544 19.8082 5.92544C20.8816 5.92544 21.9516 5.92544 23.025 5.92544C24.3235 5.92544 25.6185 5.92544 26.917 5.92544C28.0389 5.92544 29.1608 5.92544 30.2827 5.92544C30.8264 5.92544 31.3735 5.93582 31.9171 5.92544C31.924 5.92544 31.9309 5.92544 31.9413 5.92544C32.485 5.92544 33.0044 5.44759 32.9801 4.88664C32.9559 4.32223 32.5231 3.84785 31.9413 3.84785Z" fill="#566880"/>
<path d="M15.4938 8.66089C15.4938 7.80561 15.4938 6.95034 15.4938 6.09506C15.4938 4.7377 15.4938 3.38034 15.4938 2.01952C15.4938 1.70442 15.4938 1.39278 15.4938 1.07768C15.4938 0.534044 15.0159 0.0146457 14.455 0.0388842C13.8906 0.0631228 13.4162 0.495955 13.4162 1.07768C13.4162 1.93296 13.4162 2.78823 13.4162 3.6435C13.4162 5.00086 13.4162 6.35822 13.4162 7.71905C13.4162 8.03415 13.4162 8.34579 13.4162 8.66089C13.4162 9.20452 13.894 9.72392 14.455 9.69968C15.0194 9.67545 15.4938 9.24261 15.4938 8.66089Z" fill="#566880"/>
</svg>
