<svg width="24" height="24" viewBox="0 0 24 24" fill="none" xmlns="http://www.w3.org/2000/svg">
<path d="M12 11.25C13.9416 11.25 15.5156 9.676 15.5156 7.73438C15.5156 5.79275 13.9416 4.21875 12 4.21875C10.0584 4.21875 8.48438 5.79275 8.48438 7.73438C8.48438 9.676 10.0584 11.25 12 11.25Z" fill="white"/>
<path d="M12 0C5.37258 0 0 5.37258 0 12C0 18.6274 5.37258 24 12 24C18.6274 24 24 18.6274 24 12C24 5.37258 18.6274 0 12 0ZM12 2.8125C14.7139 2.8125 16.9219 5.02045 16.9219 7.73438C16.9219 10.4483 14.7139 12.6562 12 12.6562C9.28608 12.6562 7.07812 10.4483 7.07812 7.73438C7.07812 5.02045 9.28608 2.8125 12 2.8125ZM19.99 16.5376C18.3579 19.4058 15.2963 21.1875 12 21.1875C8.70366 21.1875 5.64206 19.4058 4.00997 16.5376L3.76125 16.1005L4.09453 15.7238C5.02894 14.668 6.3727 14.0625 7.78125 14.0625H16.2188C17.6273 14.0625 18.9711 14.668 19.9054 15.7239L20.2387 16.1005L19.99 16.5376Z" fill="white"/>
<path d="M7.78126 15.4688C6.9467 15.4688 6.14387 15.7665 5.51331 16.2987C6.94871 18.4595 9.38738 19.7812 12 19.7812C14.6126 19.7812 17.0513 18.4595 18.4867 16.2987C17.8561 15.7665 17.0533 15.4688 16.2188 15.4688H7.78126Z" fill="white"/>
</svg>
